Coordinates
version=1
nRows=19
nColumns=63
inDegrees=yes

Units are S.I. units (second, meters, Newtons, ...)
If the header above contains a line with 'inDegrees', this indicates whether rotational values are in degrees (yes) or radians (no).

endheader
time	pelvis_tilt	pelvis_list	pelvis_rotation	pelvis_tx	pelvis_ty	pelvis_tz	hip_flexion_r	hip_adduction_r	hip_rotation_r	knee_angle_r	knee_angle_r_beta	ankle_angle_r	subtalar_angle_r	mtp_angle_r	hip_flexion_l	hip_adduction_l	hip_rotation_l	knee_angle_l	knee_angle_l_beta	ankle_angle_l	subtalar_angle_l	mtp_angle_l	L5_S1_Flex_Ext	L5_S1_Lat_Bending	L5_S1_axial_rotation	L4_L5_Flex_Ext	L4_L5_Lat_Bending	L4_L5_axial_rotation	L3_L4_Flex_Ext	L3_L4_Lat_Bending	L3_L4_axial_rotation	L2_L3_Flex_Ext	L2_L3_Lat_Bending	L2_L3_axial_rotation	L1_L2_Flex_Ext	L1_L2_Lat_Bending	L1_L2_axial_rotation	L1_T12_Flex_Ext	L1_T12_Lat_Bending	L1_T12_axial_rotation	Abs_r3	Abs_r2	Abs_r1	Abs_t1	Abs_t2	neck_flexion	neck_bending	neck_rotation	arm_flex_r	arm_add_r	arm_rot_r	elbow_flex_r	pro_sup_r	wrist_flex_r	wrist_dev_r	arm_flex_l	arm_add_l	arm_rot_l	elbow_flex_l	pro_sup_l	wrist_flex_l	wrist_dev_l
5.237288	-1.917574	-3.286480	83.520995	0.411181	0.919883	0.488944	-0.701523	0.825949	-1.803399	9.921474	0.173162	38.166047	14.111215	0.000000	3.654327	-5.008986	-7.589327	15.861002	0.276827	38.442979	6.113089	0.000000	0.080611	0.360009	0.423991	0.149702	0.478812	0.450491	0.132435	0.875326	0.450491	0.092130	0.875326	0.370992	0.074855	0.734130	0.344493	0.046061	0.557654	0.317994	0.575793	4.072494	2.358113	0.000000	0.000000	20.963986	-1.410206	20.296045	16.277970	-63.742652	87.114967	123.447005	89.167021	-7.812835	11.037880	11.353595	-61.437705	78.282573	125.016372	85.584100	26.129898	23.762682
5.254237	-1.846242	-3.370013	84.226103	0.410309	0.920112	0.490000	-0.575717	0.921182	-2.516921	9.857387	0.172044	38.257776	14.292677	0.000000	4.059852	-5.080373	-7.088472	16.075627	0.280573	38.415415	6.084772	0.000000	0.083183	0.365039	0.313557	0.154479	0.485502	0.333154	0.136661	0.887555	0.333154	0.095070	0.887555	0.274363	0.077244	0.744387	0.254765	0.047531	0.565445	0.235168	0.594168	4.129392	1.743911	0.000000	0.000000	20.853425	-1.444701	20.512152	16.104457	-63.622760	87.151759	122.733942	89.198163	-8.249254	9.753534	12.873859	-61.612164	79.738563	124.685017	84.507976	25.500040	22.607680
5.271186	-1.753793	-3.434535	84.958832	0.409405	0.920292	0.491103	-0.470349	1.040568	-3.193792	9.810805	0.171231	38.330754	14.400996	0.000000	4.465187	-5.159777	-6.486369	16.322536	0.284882	38.417496	6.011641	0.000000	0.084775	0.368391	0.196339	0.157435	0.489959	0.208610	0.139276	0.895705	0.208610	0.096889	0.895705	0.171796	0.078722	0.751222	0.159525	0.048440	0.570637	0.147254	0.605537	4.167308	1.091976	0.000000	0.000000	20.688498	-1.434283	20.350348	16.073421	-63.448950	87.333050	121.995594	89.233411	-8.432555	8.662871	14.436150	-61.827197	81.187873	124.392130	83.546997	24.841431	21.385728
5.288136	-1.651914	-3.492206	85.700758	0.408495	0.920397	0.492225	-0.367129	1.166991	-3.878930	9.792826	0.170917	38.408836	14.495706	0.000000	4.873232	-5.238313	-5.810071	16.593243	0.289607	38.436728	5.898441	0.000000	0.087779	0.369556	0.073622	0.163015	0.491509	0.078223	0.144212	0.898538	0.078223	0.100323	0.898538	0.064419	0.081512	0.753598	0.059818	0.050157	0.572442	0.055216	0.626998	4.180490	0.409462	0.000000	0.000000	20.473986	-1.421017	19.883172	16.194053	-63.216679	87.672653	121.270545	89.265881	-8.369145	7.841753	15.875394	-62.068975	82.451184	124.138030	82.726240	24.296018	20.193153
5.305085	-1.531929	-3.512410	86.429429	0.407586	0.920463	0.493324	-0.307743	1.309924	-4.530419	9.791486	0.170894	38.474003	14.545963	0.000000	5.241373	-5.310604	-4.993072	16.881366	0.294635	38.453085	5.607401	0.000000	0.087939	0.369342	-0.042892	0.163311	0.491225	-0.045573	0.144475	0.898019	-0.045573	0.100505	0.898019	-0.037530	0.081660	0.753163	-0.034850	0.050248	0.572111	-0.032169	0.628139	4.178073	-0.238552	0.000000	0.000000	20.207235	-1.372085	19.061170	16.347727	-62.965948	88.054326	120.583978	89.295183	-8.083271	7.316555	17.265124	-62.303854	83.580146	123.897407	81.937620	23.934808	19.006069
5.322034	-1.402066	-3.512906	87.103330	0.406744	0.920460	0.494362	-0.266691	1.461876	-5.115383	9.818736	0.171369	38.530238	14.550813	0.000000	5.571687	-5.399661	-4.255252	17.174493	0.299751	38.509487	5.384370	0.000000	0.088489	0.367498	-0.157137	0.164333	0.488773	-0.166958	0.145378	0.893536	-0.166958	0.101134	0.893536	-0.137494	0.082171	0.749403	-0.127673	0.050563	0.569255	-0.117852	0.632067	4.157215	-0.873946	0.000000	0.000000	19.891152	-1.252613	17.992322	16.698997	-62.675861	88.641433	119.956062	89.315530	-7.550177	7.132271	18.392888	-62.578806	84.452399	123.713308	81.317002	23.394380	17.786775
5.338983	-1.265947	-3.485861	87.705542	0.405972	0.920396	0.495321	-0.255864	1.617694	-5.612910	9.871849	0.172296	38.571609	14.493323	0.000000	5.851747	-5.489576	-3.530797	17.467518	0.304866	38.598784	5.124555	0.000000	0.087518	0.364922	-0.261956	0.162529	0.485347	-0.278329	0.143783	0.887273	-0.278329	0.100024	0.887273	-0.229212	0.081269	0.744150	-0.212839	0.050008	0.565265	-0.196467	0.625130	4.128076	-1.456922	0.000000	0.000000	19.535612	-1.088586	16.731281	17.169918	-62.389240	89.358993	119.424508	89.324512	-6.836139	7.321272	19.347466	-62.876946	85.138322	123.599002	80.896059	22.732579	16.620763
5.355932	-1.144419	-3.434065	88.226407	0.405345	0.920273	0.496176	-0.272821	1.756768	-6.054913	9.944098	0.173557	38.599500	14.421982	0.000000	6.076612	-5.582424	-2.971497	17.746836	0.309741	38.748254	5.040728	0.000000	0.085325	0.358886	-0.356579	0.158457	0.477318	-0.378865	0.140180	0.872594	-0.378865	0.097518	0.872594	-0.312007	0.079233	0.731839	-0.289720	0.048755	0.555914	-0.267434	0.609467	4.059785	-1.983186	0.000000	0.000000	19.145927	-0.848784	15.340685	17.700897	-62.106467	90.124672	118.984183	89.323210	-5.950187	7.797380	20.092731	-63.205229	85.572490	123.576128	80.667708	22.148575	15.649433
5.372881	-1.048762	-3.355152	88.668247	0.404866	0.920110	0.496912	-0.326862	1.869487	-6.412894	10.019782	0.174878	38.608703	14.300365	0.000000	6.241886	-5.649347	-2.456329	17.996514	0.314098	38.932957	5.003959	0.000000	0.080486	0.348813	-0.445704	0.149471	0.463922	-0.473561	0.132231	0.848104	-0.473561	0.091988	0.848104	-0.389991	0.074740	0.711300	-0.362135	0.045990	0.540312	-0.334278	0.574906	3.945845	-2.478872	0.000000	0.000000	18.750981	-0.542901	13.902229	18.329117	-61.838719	90.897276	118.666926	89.314851	-4.789657	8.620768	20.523022	-63.562268	85.638087	123.668346	80.678893	21.747267	15.013078
5.389831	-0.993501	-3.279571	89.007946	0.404587	0.919893	0.497531	-0.368655	1.936400	-6.760217	10.124407	0.176704	38.621741	14.248264	0.000000	6.375113	-5.694278	-2.097279	18.211541	0.317851	39.168921	5.163893	0.000000	0.077931	0.333757	-0.519047	0.144726	0.443897	-0.551487	0.128033	0.811497	-0.551487	0.089067	0.811497	-0.454166	0.072367	0.680597	-0.421725	0.044530	0.516990	-0.389285	0.556653	3.775526	-2.886782	0.000000	0.000000	18.364162	-0.165791	12.483418	18.926906	-61.591849	91.681157	118.410542	89.306315	-4.041554	9.227451	20.811929	-63.916950	85.642294	123.859439	80.942235	21.251087	14.629147
5.406780	-0.961340	-3.179413	89.241964	0.404474	0.919686	0.498024	-0.445915	1.984475	-6.946885	10.216202	0.178306	38.594897	14.111616	0.000000	6.435659	-5.717521	-1.801339	18.370995	0.320634	39.417560	5.379631	0.000000	0.072332	0.317980	-0.582021	0.134327	0.422913	-0.618397	0.118834	0.773136	-0.618397	0.082668	0.773136	-0.509268	0.067167	0.648425	-0.472892	0.041330	0.492551	-0.436515	0.516658	3.597053	-3.237024	0.000000	0.000000	18.029166	0.256979	11.260980	19.544883	-61.410759	92.253748	118.343553	89.304071	-2.771717	10.274034	20.716860	-64.229250	85.231222	124.127842	81.481829	21.267926	14.728516
5.423729	-0.975885	-3.074160	89.383295	0.404536	0.919504	0.498419	-0.535280	1.987551	-7.050665	10.288854	0.179574	38.538678	13.960880	0.000000	6.447090	-5.699340	-1.589858	18.470866	0.322377	39.651213	5.695327	0.000000	0.067863	0.297248	-0.638142	0.126028	0.395340	-0.678026	0.111492	0.722729	-0.678026	0.077561	0.722729	-0.558375	0.063018	0.606148	-0.518491	0.038777	0.460437	-0.478607	0.484738	3.362528	-3.549157	0.000000	0.000000	17.748784	0.693031	10.149479	20.220865	-61.188000	92.934209	118.282994	89.310250	-2.200907	10.789623	20.414684	-64.499060	84.909914	124.406013	82.242749	20.709416	14.728366
5.440678	-1.012081	-2.955537	89.452650	0.404697	0.919370	0.498704	-0.644485	1.964867	-7.112528	10.353251	0.180698	38.469391	13.834585	0.000000	6.405926	-5.670845	-1.472249	18.530898	0.323425	39.880685	6.108950	0.000000	0.063210	0.275607	-0.698070	0.117387	0.366557	-0.741699	0.103847	0.670111	-0.741699	0.072242	0.670111	-0.610811	0.058697	0.562018	-0.567182	0.036118	0.426915	-0.523553	0.451501	3.117722	-3.882456	0.000000	0.000000	17.519999	1.188515	9.299463	21.112666	-60.888096	93.979714	118.187613	89.329960	-2.687854	10.533843	19.819748	-64.720762	84.630670	124.669540	83.286728	19.475615	14.598646
5.457627	-1.075541	-2.836212	89.442017	0.404954	0.919290	0.498845	-0.769195	1.914711	-7.094368	10.388975	0.181322	38.361513	13.696311	0.000000	6.315034	-5.617692	-1.413511	18.541148	0.323604	40.061978	6.491172	0.000000	0.061530	0.252167	-0.755134	0.114267	0.335383	-0.802330	0.101087	0.613120	-0.802330	0.070322	0.613120	-0.660742	0.057136	0.514220	-0.613546	0.035158	0.390607	-0.566351	0.439500	2.852568	-4.199829	0.000000	0.000000	17.351949	1.676856	8.602441	22.120222	-60.545215	95.265648	118.069341	89.393611	-4.021987	9.678191	19.073901	-64.921499	84.570469	124.884008	84.461730	17.439574	14.146098
5.474576	-1.166749	-2.718162	89.407389	0.405226	0.919254	0.498873	-0.902542	1.830342	-7.114283	10.408189	0.181657	38.233448	13.617876	0.000000	6.193826	-5.537411	-1.382786	18.517676	0.323194	40.192040	6.820942	0.000000	0.061494	0.226906	-0.817155	0.114200	0.301785	-0.868227	0.101028	0.551699	-0.868227	0.070281	0.551699	-0.715011	0.057103	0.462706	-0.663938	0.035138	0.351477	-0.612866	0.439245	2.566803	-4.544771	0.000000	0.000000	17.270500	2.166039	8.054368	23.281410	-60.199131	96.785741	117.949432	89.785309	-6.096867	8.363184	18.344455	-65.163560	84.873082	125.019982	85.585517	14.557316	13.259096
5.491525	-1.262208	-2.629383	89.386678	0.405450	0.919230	0.498809	-1.026114	1.744543	-7.125839	10.390142	0.181342	38.057207	13.499173	0.000000	6.088038	-5.455112	-1.373671	18.482500	0.322580	40.283079	7.108228	0.000000	0.065316	0.203111	-0.878594	0.121298	0.270138	-0.933506	0.107307	0.493844	-0.933506	0.074649	0.493844	-0.768770	0.060652	0.414184	-0.713858	0.037321	0.314619	-0.658946	0.466544	2.297634	-4.886477	0.000000	0.000000	17.295577	2.628079	7.611245	24.287708	-59.928918	98.071440	117.831197	90.824888	-8.342891	6.682935	17.759485	-65.424427	85.492528	125.041024	86.471936	11.397405	12.203000
5.508475	-1.363059	-2.577674	89.370323	0.405645	0.919191	0.498728	-1.118285	1.657241	-7.103627	10.348524	0.180616	37.843820	13.314191	0.000000	6.009191	-5.370301	-1.411266	18.433564	0.321726	40.342227	7.354827	0.000000	0.071231	0.180818	-0.932259	0.132282	0.240488	-0.990525	0.117025	0.439640	-0.990525	0.081409	0.439640	-0.815727	0.066145	0.368723	-0.757461	0.040701	0.280087	-0.699194	0.508793	2.045446	-5.184946	0.000000	0.000000	17.431743	3.059356	7.259924	25.154214	-59.766579	99.154773	117.665144	91.788445	-10.402229	4.609533	17.412799	-65.717917	86.392902	124.907132	86.990342	8.279201	11.075967
5.525424	-1.460614	-2.572687	89.472046	0.405689	0.919106	0.498685	-1.186782	1.582589	-7.118744	10.249735	0.178892	37.595827	13.034547	0.000000	6.019465	-5.282793	-1.377628	18.427403	0.321619	40.396127	7.576684	0.000000	0.080229	0.160129	-0.987480	0.148994	0.212971	-1.049197	0.131809	0.389336	-1.049197	0.091694	0.389336	-0.864045	0.074501	0.326534	-0.802327	0.045843	0.248039	-0.740610	0.573071	1.811406	-5.492065	0.000000	0.000000	17.634554	3.426233	6.905431	25.773823	-59.730818	99.904257	117.422218	92.133787	-11.930687	2.460998	17.496301	-66.013310	87.627625	124.577113	87.061664	5.600960	10.062123
5.542373	-1.550112	-2.606122	89.674624	0.405576	0.918972	0.498757	-1.215728	1.514308	-7.236580	10.127595	0.176760	37.361760	12.778563	0.000000	6.114437	-5.186991	-1.239259	18.467001	0.322310	40.440582	7.709015	0.000000	0.089299	0.142357	-1.035241	0.165838	0.189335	-1.099944	0.146710	0.346127	-1.099944	0.102060	0.346127	-0.905836	0.082923	0.290294	-0.841133	0.051026	0.220511	-0.776431	0.637856	1.610371	-5.757701	0.000000	0.000000	17.871463	3.702397	6.551027	26.062419	-59.841571	100.185187	117.060981	91.450882	-12.694955	0.535246	18.035346	-66.259991	89.115692	123.993664	86.840160	3.599061	9.181905
